<svg xmlns:dc="http://purl.org/dc/elements/1.1/" xmlns:cc="http://creativecommons.org/ns#" xmlns:rdf="http://www.w3.org/1999/02/22-rdf-syntax-ns#" xmlns:svg="http://www.w3.org/2000/svg" xmlns="http://www.w3.org/2000/svg" version="1.1" viewBox="0 0 100 125" x="0px" y="0px"><g transform="translate(0,-952.36216)"><path d="m 67.957435,964.79899 c -0.18021,-0.002 -0.363841,-9.7e-4 -0.550515,0.002 -0.995082,0.0229 -2.073933,0.13885 -3.178383,0.34251 -3.535762,0.65204 -5.440131,4.11057 -7.063413,6.20555 -4.258122,5.49533 -6.557761,7.23478 -10.561156,11.59319 -8.85494,8.85343 -9.578061,7.66064 -18.679923,34.46876 -1.966212,5.7912 -4.940016,9.1656 -7.619325,13.5807 -1.1548,1.9029 -2.375309,3.5982 -3.237833,6.4265 0.06159,0.4625 -0.08465,0.3706 0.06172,0.4625 0.150999,0.095 0.665242,-0.091 1.000063,-0.3851 0.26797,-0.2354 0.704973,0.061 0.942502,0.063 l 0.302859,0 -0.05525,-0.038 16.078629,-17.326 c 0.166396,-0.3317 -0.185787,-0.5067 -0.340143,-0.8385 -0.01267,-0.8415 0,-1.2351 0.0697,-1.8286 0.188828,-0.3684 0.441401,-0.1582 0.505273,0.052 -0.07097,0.5907 -0.323669,0.7295 -0.174128,1.5847 0.114057,0.2357 0.19301,0.7146 0.348254,0.6618 2.508236,-2.3254 3.554644,-3.4926 5.206314,-5.4772 0.574339,-0.751 1.111801,-1.4655 1.620621,-2.1509 0.544178,-0.459 0.958964,-0.6623 1.323439,-0.7661 -0.457621,-1.4096 -0.214807,-1.9714 -0.31315,-3.0219 0.106453,-0.1481 0.08491,-0.4758 0.438105,-0.069 0.01267,1.0775 -0.108987,2.3426 0.397679,2.6733 7.754064,-8.4842 15.885683,-18.12332 11.264733,-24.90002 -0.07857,-0.28559 0.01521,-0.36201 0.146374,-0.35772 0.168044,0.006 0.396664,0.14438 0.396664,0.14438 2.46933,4.4295 2.846985,10.2267 -11.529219,25.67066 l -1.671693,1.1494 c -1.37185,1.539 -2.54144,3.3135 -4.104525,4.7858 -6.525699,6.1459 -12.685274,13.2433 -18.891752,20.2442 0.04169,0.054 0.07946,0.1217 0.115451,0.2136 l -0.224768,-0.09 c -0.01914,0.021 -0.03814,0.043 -0.05716,0.064 l -0.03992,-0.028 -0.170667,0.1027 c -0.32965,-0.014 -0.352728,0.2794 -0.517362,0.4309 -0.184683,-0.082 -0.369202,-0.015 -0.553923,0.1356 l 0,0.1969 c -0.122548,0.2129 -0.217583,0.3981 -0.381724,0.6527 -0.178257,0.1554 -0.228759,0.4648 -0.616021,0.3695 -0.07794,0.16 -0.03193,0.3202 -0.02433,0.4803 0.07236,0.1769 0.0678,0.4153 0.356947,0.4188 0.374906,-0.028 0.501839,-0.154 0.652609,-0.2709 0.01584,0.2245 0.03282,0.4486 0.184772,0.6278 0.336607,-0.1115 0.673316,-0.085 1.009935,-0.061 l 0.01267,0.4061 0.837367,0.024 0.369519,-0.4557 0,0.2956 0.123054,-0.2708 0.258694,-0.1974 c 0,0 0.09999,-0.4396 0.194277,-0.5431 0.06565,-0.072 0.122167,0.095 0.166853,0.3672 0.01888,0.1153 0.168486,-0.035 0.280377,-0.1345 2.811373,-1.72 9.93004,-9.9221 12.100669,-13.5064 0.747959,-0.4196 1.387691,-1.0022 2.005752,-1.6169 l 0.05576,-0.8175 0.238378,0.6294 2.334743,-2.1091 c 0.05069,0.4494 3.297003,-2.1239 4.796216,-3.4847 0.647463,-0.1519 0.418335,0 0.532646,0.141 0,0.5281 -0.417955,1.6569 0.105186,1.4282 0.12166,0.4401 -0.09886,1.5088 0.38285,1.2888 l 0,1.0446 c 0.06464,0.5358 0.0697,1.325 0.383231,0.8013 -0.04309,0.3831 -0.03802,0.7661 -0.139403,1.1492 0.220511,0.1743 0.359217,0.5954 0.696824,0.4184 0.129138,0.5311 0.259543,1.0603 0.45306,1.4629 0.286789,0.4874 0.493613,1.134 0.962132,1.258 l 0.766589,0.3135 c 0.11279,-0.1655 0.450778,-0.402 0.500202,-0.6312 0.226087,0.085 0.416308,0.2595 0.766209,0.036 0.326583,-0.2089 0.571045,-0.4181 0.836163,-0.627 0.227987,0.3293 1.01612,0.8173 1.147792,1.2365 0.403128,1.2835 1.721371,2.5545 0.05069,2.6111 -1.876488,-0.068 -3.295735,-0.3775 -4.807369,1.7251 l 26.641648,-0.715 -1.194682,-1.7239 c 1.268565,-1.648 0.209865,-2.6488 -1.238911,-2.5959 -1.923632,0.4054 -2.243498,0.2753 -4.611191,1.7609 -0.819055,-0.1693 -1.489201,-0.3719 -2.612282,-0.2786 -0.445581,-1.0653 -1.148298,-2.4361 -1.776371,-3.8664 1.351447,-5.6272 1.862041,-13.8365 1.569168,-21.2752 3.39674,-4.0241 8.035812,-7.62563 8.226159,-16.89581 -0.387286,-1.06384 -0.641253,-2.0968 -1.84696,-3.34947 -0.263344,1.12853 -0.264739,2.19153 -0.272342,3.25612 -0.122928,0.24672 -0.232169,0.73558 -0.417575,-0.079 0.263598,-3.08237 0.404775,-6.26303 0.147767,-9.60568 l 2.758655,-4.80247 c 1.301134,-0.91677 2.717594,-1.65396 4.595223,-1.67397 -0.301998,-0.0467 -0.891544,-1.57168 -4.644395,0.14669 -0.512368,0.0884 -1.194175,0.39581 -0.689536,-0.41869 1.465123,-0.26381 1.816924,-0.81833 4.457721,-0.78823 0.538109,0.12135 1.144407,0.34764 1.378693,1.06863 0.04943,-0.11089 -0.09379,1.57119 -0.03929,1.47167 2.447405,-4.44814 -4.165228,-5.50736 -4.156738,-5.63564 0.106453,-1.62929 -1.846453,-2.40615 -4.550741,-2.44048 z m 1.452323,2.44429 c 1.59895,0.0114 2.324098,0.53825 2.196988,1.20766 -0.128124,0.67488 -1.275788,1.64359 -2.79097,1.71054 -1.359431,0.0601 -2.786029,-1.14732 -2.849267,-1.85836 -0.06083,-0.68422 1.595655,-1.00338 3.11147,-1.05527 0.114058,-0.004 0.225073,-0.006 0.331779,-0.005 z m -0.296041,0.26971 c -0.36349,1.1e-4 -0.703707,0.15493 -0.910046,0.41412 0.205826,0.0758 0.343714,0.2798 0.343944,0.50897 -7.9e-5,0.24573 -0.158064,0.46041 -0.384371,0.5223 0.198692,0.29119 0.559961,0.47002 0.950473,0.4705 0.610925,4e-5 1.106151,-0.42899 1.105971,-0.95814 -6.9e-5,-0.529 -0.495222,-0.95779 -1.105971,-0.95775 z m -0.74251,23.25039 c 0.06336,0.0195 0.125463,0.13697 0.206824,0.3985 -0.703731,6.75498 -5.264611,9.67782 -8.390021,14.17812 -0.242434,0.09 -0.241167,0.042 -0.208724,-0.4184 6.105335,-7.3919 7.02438,-7.56502 8.185098,-13.96888 0.0811,-0.1305 0.144092,-0.20882 0.206823,-0.18934 z m -15.079706,15.95942 c 0.08871,-0.012 0.169944,0.1554 0.278805,0.3239 -0.131926,1.6548 -0.01521,3.0763 -0.31353,4.9808 -0.321893,0.4251 -0.386526,0.3989 -0.52276,-0.1039 0.309854,-1.7093 0.345339,-3.3273 0.383358,-4.9461 0.06463,-0.1751 0.120394,-0.2469 0.174127,-0.2542 z m 5.153214,0.5937 c 0.103918,0.014 0.154104,0.1064 0.106453,0.3714 -0.810437,0.7658 -1.464616,1.5486 -2.140974,2.4484 -0.39527,0.1077 -0.452551,-0.042 -0.338748,-0.3504 0.828686,-0.7584 1.418993,-1.6479 2.137932,-2.4283 0.09124,-0.029 0.172733,-0.049 0.235084,-0.041 z m -5.431766,6.2782 c 0.717798,0.4801 1.460561,0.9101 1.636968,2.4729 0.715137,-0.1191 1.397576,3.9243 2.960409,6.6529 3.724336,2.3668 2.323971,6.1531 1.985602,7.3144 -1.880036,0.1517 -3.736754,0.3268 -5.433667,0.6618 -4.797357,-4.9216 -0.798398,-11.3956 -1.149312,-17.102 z m 17.929733,15.6193 c 0.479926,0 0.807649,0.391 0.480433,1.3695 -0.315685,-0.1625 -0.898514,-0.5885 -1.638996,-0.7192 0.320245,-0.4012 0.78547,-0.6468 1.158563,-0.6503 z" style="enable-background:new;" fill="#000000" fill-rule="evenodd" stroke="none"/></g><text x="0" y="115" fill="#000000" font-size="5px" font-weight="bold" font-family="'Helvetica Neue', Helvetica, Arial-Unicode, Arial, Sans-serif">Created by euka</text><text x="0" y="120" fill="#000000" font-size="5px" font-weight="bold" font-family="'Helvetica Neue', Helvetica, Arial-Unicode, Arial, Sans-serif">from the Noun Project</text></svg>