<svg xmlns="http://www.w3.org/2000/svg" xmlns:xlink="http://www.w3.org/1999/xlink" version="1.1" x="0px" y="0px" viewBox="52 52 96 120" enable-background="new 52 52 96 96" xml:space="preserve"><path d="M124.947,121.047c-0.45,0.45-0.15,0.15,0.15,0.601l0.75,0.75c0.6,0.45,0,0.149,0.6,0.3L124.947,121.047  L124.947,121.047z M76.947,115.497l-0.15,0.075c-0.375-2.625-5.475-4.725-9.6-10.95c-2.1-3.075-3.3-6-4.05-9.975l-2.325-11.025  c-2.85-8.55-9.675-6-8.775-15.6c0.226-2.85,0.226-2.325,7.8,0.075c2.175,0.75,2.7,0.9,4.125,0.225  c4.875-2.55,4.575,2.475,16.5,4.275c1.725,0.3,3,0.45,1.95,2.175c0.825,0.225,1.351,0.375,1.726,0.975  c-0.525,2.025-3.675,1.35-5.175,3.15l4.425,4.5c0.899,0.6,6.375,2.1,8.024,2.7c1.2,0.525,9.825,2.625,10.95,3.15  c2.55,0,5.101-0.15,7.351-0.375c2.475-0.15,5.1,0.15,7.5,0.3c2.324,0.15,4.274,0.9,6.449,1.2c6.45,1.05,11.176,4.725,13.051,10.275  c1.725,5.1,0.3,4.575,3.975,11.475l2.775,4.875c1.05,1.726,2.024,2.925,2.925,5.101c0.6,1.725,1.725,3.975,1.5,6.3  c-3.075-0.9-5.4-2.175-7.65-4.125l-2.024-2.025c-1.5-1.5-2.176-2.475-3.375-4.274c-1.5-2.025-2.476-4.275-2.926-4.875  c-0.899,4.725,2.176,7.199,4.426,9.824c0.6,0.601,0.75,0.9,1.35,1.726c2.775,3.375-0.15,6.75-2.175,13.35  c-0.75,2.325-0.45,2.325-3.375,2.175c-1.726,0-4.425,0.15-6,0c-0.75-2.625,3.524-3.074,4.425-3.225c1.2-0.45,0.9-1.05,1.35-2.325  c0.75-2.475,2.775-5.55-0.899-8.625l-3.375-2.475c-0.45-0.3-0.75-0.601-1.351-0.75c0.601,2.024,3.075,2.024,2.325,5.7  c-0.3,1.5-2.325,6.6-3.075,9.225c-0.3,1.05-0.6,2.475-1.5,2.625c-0.6,0.15-7.199-0.15-7.949-0.3c-0.15-2.476,3.225-2.775,5.25-3.226  c0.75-1.725,2.324-6,1.5-8.1c-0.45-1.5-1.2-2.025-2.176-2.925c-1.5-1.2-1.199-0.601-3.074-2.175c-1.726-1.5-4.125-2.926-5.7-4.426  c-1.351-1.5-3.226-4.274-3.976-6.6c-3.975,0-9.375,2.325-13.05,3.225c0,2.025,0.45,4.726,0.75,6.45  c0.45,3.525,1.5,9.675,0.45,12.601l-1.5,4.725c-0.45,0.75-0.15,0.15-0.45,0.45c-1.725,0.6-6.75,0.45-8.475,0.149  c-0.45-3.375,4.274-2.774,5.1-3.675c0.3-0.3,1.05-2.925,1.2-3.375c0.15-1.5-2.625-8.475-3.225-10.274  c-1.5-4.125-1.2-5.551-3.225-5.7l1.35,12.149c0.3,3.075,0.6,2.926-0.3,5.851c-0.3,0.75-0.6,1.5-0.899,2.325  c-0.3,0.899-0.45,1.725-0.75,2.625c-1.351,0.3-7.351,0.6-8.625,0c-0.601-1.051,0-1.726,1.2-2.325c1.05-0.601,2.925-0.75,3.375-0.9  c0.6-0.45,1.05-2.175,1.35-3.075c0.45-1.35,0-1.875-0.45-3.225L76.947,115.497L76.947,115.497z M65.622,69.672  c-0.45,0-0.9,0.375-0.9,0.9c0,0.45,0.375,0.9,0.9,0.9c0.45,0,0.9-0.375,0.9-0.9C66.447,70.047,66.072,69.672,65.622,69.672z"/><text x="52" y="163" fill="#000000" font-size="5px" font-weight="bold" font-family="'Helvetica Neue', Helvetica, Arial-Unicode, Arial, Sans-serif">Created by synonymsof.com</text><text x="52" y="168" fill="#000000" font-size="5px" font-weight="bold" font-family="'Helvetica Neue', Helvetica, Arial-Unicode, Arial, Sans-serif">from the Noun Project</text></svg>