<svg xmlns="http://www.w3.org/2000/svg" data-name="Layer 1" viewBox="0 0 90 50.8125" x="0px" y="0px"><title>03</title><path d="M93.09,55.28c-3.58-6.92-9.61-14.28-21.75-19a62.11,62.11,0,0,0-7.41-2.52c-4.2-1.24-8.67-3.15-19.39-1.58a69.86,69.86,0,0,1-12.29-1.1,89.22,89.22,0,0,0-12.61-1.42s-3.78.47-5,1.42-2.84,1.58-4.1,2.36-4.26,1.42-4.89,2.21S4.2,38.19,6.88,39.13s6.46.32,7.25.47,2.84,3.47,12,2.68a8.61,8.61,0,0,1,1.42,2s.16-3.94,2.84-4.73a7.23,7.23,0,0,1,4.89.32s-6-.47-6.3,3.15l-.47,5.36a10.5,10.5,0,0,1-.16,3.78,3.19,3.19,0,0,1-3.62,2.68c-1.89-.16-1.42-.79-3.31.32a1.8,1.8,0,0,0-1.1,1.89s.79-1.1,1.42-.95,1.26,1.42,3.94,1.26,4.89.63,6-1.89,3.94-8.2,3.94-10.4l.16-2.36a9.84,9.84,0,0,1,.47,4.89,25.14,25.14,0,0,1,5.83.95c2.21.79,8.35,3.62,13.4,3a46.81,46.81,0,0,1,.32-6.15,11.92,11.92,0,0,1,1.89-2.68,11.41,11.41,0,0,0-1.1,4.41c0,2.21.16,7.25,1.1,8.83a11.66,11.66,0,0,1,3.31,2.21s-4.41-1.58-4.89-1.58-1.89.63-3.31.16-2.21-2.36-3.78-.32l-.63,1.73s1.26-1.42,2-1.26,1.1,1.89,2.84,1.89S57,59,57,59s-1.42,1.42-.16,2.52a2.35,2.35,0,0,1,1.89-2s6,1.26,5.67-2.36-.32-8-.32-8,4.26-3.94,5.67-5.67a17.69,17.69,0,0,1-4.26,6.15v1.73l3-1.19a9.11,9.11,0,0,1,7.85.46,9.82,9.82,0,0,1,2.42,1.83c1.26,1.42,4.26,4.57,8,8.51a3.08,3.08,0,0,1,3.15.47s-3.78,0-4.73,1.42-15,4.1-18.76,3.94S62.2,65,60.78,65s3,5,9,5S93.4,72.86,95,61.2C95.17,59.8,93.93,56.91,93.09,55.28ZM14.7,35.17s-.27-.77.93-1.18,1.71.12,1.71.12S17,36.08,14.7,35.17Z" transform="translate(-5 -29.67)"/><path d="M67.87,52.05l-.47,2.68-1.58.47v2.21s4.57.79,5.67,0a6,6,0,0,0,2-4.1,5.33,5.33,0,0,1,0-1.73S71.34,50.32,67.87,52.05Z" transform="translate(-5 -29.67)"/><path d="M36.35,49.22s.32,1.73.47,2.36,0,1.42-.63,1.42a7.86,7.86,0,0,1-1.89-.47l-1.1,1.42s1.1-.47,1.73.16,5,.79,5.67.32.95-4.26.95-4.26S38.4,48.9,36.35,49.22Z" transform="translate(-5 -29.67)"/><text x="0" y="55.65" fill="#000000" font-size="5px" font-weight="bold" font-family="'Helvetica Neue', Helvetica, Arial-Unicode, Arial, Sans-serif">Created by parkjisun</text><text x="0" y="60.65" fill="#000000" font-size="5px" font-weight="bold" font-family="'Helvetica Neue', Helvetica, Arial-Unicode, Arial, Sans-serif">from the Noun Project</text></svg>